<?xml version="1.0" encoding="utf-8"?>
<!-- Generator: Adobe Illustrator 23.1.0, SVG Export Plug-In . SVG Version: 6.00 Build 0)  -->
<svg version="1.1" id="Слой_1" xmlns="http://www.w3.org/2000/svg" xmlns:xlink="http://www.w3.org/1999/xlink" x="0px" y="0px"
	 viewBox="0 0 1000 1000" style="enable-background:new 0 0 1000 1000;" xml:space="preserve">
<g>
	<path d="M298,455.75l-0.3,0.5c0.06,0,0.1,0.03,0.1,0.1c0,0.07-0.2,0.52-0.6,1.35c-0.4,0.83-0.73,1.38-1,1.65l-2.4,4.5l-1.8,4.5
		c1.6-2.73,3.03-5.2,4.3-7.4c1.27-2.2,2.48-4.32,3.65-6.35c1.17-2.03,2.36-4.11,3.6-6.25c1.23-2.13,2.62-4.53,4.15-7.2
		c0.46-0.93,0.86-1.4,1.2-1.4c0.07,0,0.1,0.07,0.1,0.2c0,0.2-0.24,0.73-0.7,1.6l-1,1.7c-0.07,0.07-0.22,0.42-0.45,1.05
		c-0.23,0.64-0.5,1.35-0.8,2.15c-0.3,0.8-0.6,1.57-0.9,2.3c-0.3,0.73-0.52,1.23-0.65,1.5c1.13-1.93,1.8-2.9,2-2.9
		c0,0.14-0.18,0.57-0.55,1.3c-0.37,0.73-0.85,1.7-1.45,2.9s-1.28,2.55-2.05,4.05c-0.77,1.5-1.55,3.05-2.35,4.65
		c0.33-0.33,0.57-0.5,0.7-0.5c0.07,0,0.1,0.14,0.1,0.4c0.2-0.4,0.3-0.83,0.3-1.3l1.4-1.4c0,0.6-0.2,1.13-0.6,1.6l-1.2,1.4
		c-0.07,0.27-0.17,0.58-0.3,0.95c-0.13,0.37-0.27,0.75-0.4,1.15c0.8-1.4,1.58-2.72,2.35-3.95c0.77-1.23,1.43-2.33,2-3.3
		c0.56-0.97,1.03-1.73,1.4-2.3c0.37-0.57,0.58-0.85,0.65-0.85c0.07,0.07-0.52,1.23-1.75,3.5c-1.24,2.27-3.38,6.17-6.45,11.7
		c-0.54,1.27-1.02,2.48-1.45,3.65c-0.43,1.17-0.79,2.12-1.05,2.85l1.2-2.1l3.2-5.4l8.1-14.3c0.33-0.53,0.68-1.03,1.05-1.5
		c0.37-0.47,0.65-0.7,0.85-0.7v0.1c0,0.33-0.2,0.83-0.6,1.5c-0.87,1.53-1.62,2.83-2.25,3.9c-0.63,1.07-1.25,2.09-1.85,3.05
		c-0.6,0.97-1.2,1.95-1.8,2.95c-0.6,1-1.3,2.2-2.1,3.6v0.8l-1.2,1.2l-0.5,0.9c0.07,0,0.1,0.04,0.1,0.1c0,0.13-0.12,0.4-0.35,0.8
		c-0.23,0.4-0.48,0.87-0.75,1.4l-2.8,5c0.4-0.4,0.91-1.07,1.55-2c0.63-0.93,1.25-1.9,1.85-2.9s1.17-1.92,1.7-2.75
		c0.53-0.83,0.9-1.38,1.1-1.65c0.4-0.73,0.8-1.45,1.2-2.15c0.4-0.7,0.83-1.42,1.3-2.15l0.4-0.7l4.7-8.1c0.47-0.93,0.86-1.4,1.2-1.4
		c0.07,0,0.1,0.07,0.1,0.2c0,0.2-0.23,0.73-0.7,1.6l-1,1.7c-0.07,0.07-0.22,0.42-0.45,1.05c-0.23,0.63-0.5,1.35-0.8,2.15
		s-0.6,1.57-0.9,2.3c-0.3,0.73-0.52,1.23-0.65,1.5c1-1.73,1.75-2.96,2.25-3.7s0.78-1.1,0.85-1.1c0.07,0.07-0.15,0.57-0.65,1.5
		c-0.5,0.93-1.07,2.03-1.7,3.3c-0.64,1.27-1.29,2.52-1.95,3.75c-0.67,1.23-1.13,2.18-1.4,2.85c0.66-0.67,1.41-1.65,2.25-2.95
		c0.83-1.3,1.65-2.58,2.45-3.85c0.8-1.27,1.5-2.38,2.1-3.35c0.6-0.97,1-1.45,1.2-1.45c0,0.2-0.35,1.04-1.05,2.5
		c-0.7,1.47-1.95,3.87-3.75,7.2c0.13,0.14,0.2,0.27,0.2,0.4c0,0.6-0.52,1.72-1.55,3.35c-1.04,1.64-2.79,4.39-5.25,8.25
		c0.46-0.13,1-0.47,1.6-1c0.6-0.53,1.17-1.08,1.7-1.65c0.53-0.57,1.01-1.07,1.45-1.5c0.43-0.43,0.71-0.65,0.85-0.65
		c0.13,0,0.2,0.07,0.2,0.2s-0.24,0.52-0.7,1.15c-0.47,0.64-0.83,1.32-1.1,2.05c0.13-0.07,0.27-0.23,0.4-0.5l1.4-1.4l0.9-0.5
		l-1.7,1.6c-0.4,0.54-0.75,1.09-1.05,1.65c-0.3,0.57-0.45,1.22-0.45,1.95c0,2.13-0.33,4.5-1,7.1c-0.67,2.6-1.57,5.3-2.7,8.1h4.95
		c1.7,0,3.55-0.03,5.55-0.1l70.3,0.3c0.73,0,1.4,0.07,2,0.2c0.6,0.14,0.9,0.27,0.9,0.4c0,0.2-0.6,0.3-1.8,0.3
		c-2,0-3.68-0.02-5.05-0.05c-1.37-0.03-2.7-0.07-4-0.1c-1.3-0.03-2.72-0.08-4.25-0.15c-1.54-0.07-3.43-0.1-5.7-0.1v0.1
		c0,0.07-0.5,0.12-1.5,0.15c-1,0.04-2.3,0.07-3.9,0.1s-3.4,0.07-5.4,0.1c-2,0.03-4,0.07-6,0.1c-2,0.03-3.9,0.07-5.7,0.1
		c-1.8,0.04-3.3,0.05-4.5,0.05h-5.6c-0.87,0-1.6,0.02-2.2,0.05c-0.6,0.04-1.1,0.05-1.5,0.05h-1.2c0,0.07,1.05,0.13,3.15,0.2
		c2.1,0.07,4.88,0.12,8.35,0.15c3.47,0.04,7.4,0.08,11.8,0.15c4.4,0.07,8.9,0.13,13.5,0.2c4.6,0.07,9.1,0.14,13.5,0.2
		c4.4,0.07,8.33,0.14,11.8,0.2c3.47,0.07,6.25,0.15,8.35,0.25c2.1,0.1,3.15,0.22,3.15,0.35c0,0.2-0.6,0.3-1.8,0.3h-2.1
		c-0.13,0-0.25,0.02-0.35,0.05s-0.25,0.05-0.45,0.05h-0.1c0.06,0.13,0.5,0.22,1.3,0.25c0.8,0.04,1.37,0.05,1.7,0.05l1.7,0.3l-1,0.1
		l-0.8-0.1c-1.27,0-3.4,0.1-6.4,0.3c-3,0.2-7.44,0.43-13.3,0.7c-5.87,0.27-13.47,0.55-22.8,0.85c-9.34,0.3-20.93,0.55-34.8,0.75
		c-1.13,0-2.12,0.02-2.95,0.05c-0.84,0.04-1.59,0.05-2.25,0.05c-1.07,0-1.97-0.01-2.7-0.05c-0.73-0.03-1.47-0.05-2.2-0.05
		c-0.73,0-1.62-0.02-2.65-0.05c-1.04-0.03-2.38-0.05-4.05-0.05h-3.9c-0.8,0-1.54,0.1-2.2,0.3c-1.4,2.93-2.97,5.87-4.7,8.8
		c-0.54,1.13-1.12,2.38-1.75,3.75c-0.64,1.37-1.42,2.93-2.35,4.7c-0.93,1.77-2.04,3.73-3.3,5.9c-1.27,2.17-2.77,4.62-4.5,7.35v0.6
		c0,0.33-0.04,0.54-0.1,0.6h0.2c0.73,0,1.61-0.02,2.65-0.05c1.03-0.03,2.08-0.05,3.15-0.05c1.4,0,3.43,0.02,6.1,0.05
		c2.67,0.03,5.67,0.1,9,0.2c3.33,0.1,6.85,0.2,10.55,0.3c3.7,0.1,7.28,0.18,10.75,0.25c3.46,0.07,6.7,0.14,9.7,0.2
		c3,0.07,5.46,0.1,7.4,0.1h18.6c0.33,0,0.6,0.04,0.8,0.1c0.33-0.13,0.65-0.2,0.95-0.2h0.85c0.47,0,0.75,0.03,0.85,0.09
		c0.1,0.06,0.15,0.15,0.15,0.27c0,0.3-0.22,0.47-0.65,0.49c-0.43,0.03-1.05,0.05-1.85,0.05c-2,0-3.68-0.01-5.05-0.04
		c-1.37-0.02-2.7-0.05-4-0.08c-1.3-0.02-2.72-0.06-4.25-0.11c-1.54-0.05-3.43-0.08-5.7-0.08v0.1c0,0.13-0.25,0.2-0.75,0.2h-1.65
		h-3.3c-2,0.23-3.9,0.41-5.7,0.52c-1.8,0.12-3.03,0.17-3.7,0.17h-0.3c0.07,0,0.1,0.02,0.1,0.05c0,0.03,0.03,0.05,0.1,0.05l17.6,0.5
		c2.73-0.16,5.12-0.3,7.15-0.42c2.03-0.12,3.15-0.18,3.35-0.18c0.33,0,0.82,0.05,1.45,0.15c0.63,0.1,0.98,0.29,1.05,0.55
		c1.33,0,2.95,0.02,4.85,0.05c1.9,0.04,3.73,0.07,5.5,0.1c1.77,0.03,3.27,0.08,4.5,0.15c1.23,0.07,1.85,0.2,1.85,0.4
		c0,0.2-0.6,0.3-1.8,0.3l-12.5,0.1c1.13,0.07,1.7,0.13,1.7,0.2c0-0.06-0.4-0.05-1.2,0.05c-0.8,0.1-1.82,0.2-3.05,0.3
		c-1.23,0.1-2.64,0.2-4.2,0.3c-1.57,0.1-3.08,0.15-4.55,0.15h-3.1c-1.07,0.13-1.79,0.22-2.15,0.25c-0.37,0.03-0.62,0.05-0.75,0.05
		h-0.1c2.73,0.2,4.93,0.35,6.6,0.45c1.67,0.1,3.18,0.22,4.55,0.35c1.36,0.14,2.05,0.27,2.05,0.4c0,0.07-0.33,0.13-1,0.2
		c-0.67,0.07-1.8,0.17-3.4,0.3l2.7-0.1c0.73,0,1.4,0.07,2,0.2c0.6,0.14,0.9,0.27,0.9,0.4c0,0.2-0.57,0.3-1.7,0.3h-4.1h-3.3
		c-1,0-2.02-0.02-3.05-0.05c-1.04-0.03-2.15-0.05-3.35-0.05H336c-0.33,0.67-0.7,1-1.1,1c0.2,0.07,0.57,0.1,1.1,0.1
		c2.73,0,5.43-0.02,8.1-0.05c2.66-0.03,5.8-0.05,9.4-0.05c0.87,0,1.3,0.14,1.3,0.4c0,0.2-0.6,0.3-1.8,0.3h-2
		c-0.07,0-0.43,0.05-1.1,0.15c-0.67,0.1-1.42,0.22-2.25,0.35c-0.83,0.14-1.65,0.27-2.45,0.4c-0.8,0.13-1.37,0.2-1.7,0.2
		c2.13,0.13,3.62,0.22,4.45,0.25c0.83,0.03,1.25,0.12,1.25,0.25c-1.47,0.13-2.97,0.27-4.5,0.4c-1.33,0.14-2.8,0.25-4.4,0.35
		c-1.6,0.1-3.17,0.22-4.7,0.35l2.2,0.9c1.53,0.07,2.75,0.1,3.65,0.1c0.9,0,1.35,0.03,1.35,0.1c0,0.07-1.27,0.13-3.8,0.2
		c0.93,0.4,1.7,0.73,2.3,1c0.6,0.27,0.9,0.47,0.9,0.6c0,0.07-0.8,0.27-2.4,0.6c-1.6,0.33-3.45,0.68-5.55,1.05
		c-2.1,0.37-4.15,0.7-6.15,1s-3.4,0.45-4.2,0.45c-0.53,0-1.64,0.07-3.3,0.2c-1.67,0.13-3.65,0.33-5.95,0.6
		c-2.3,0.27-4.78,0.55-7.45,0.85c-2.67,0.3-5.29,0.63-7.85,1c-2.57,0.36-4.93,0.73-7.1,1.1c-2.17,0.37-3.92,0.72-5.25,1.05
		c-1,0.27-2.05,0.55-3.15,0.85c-1.1,0.3-2.15,0.6-3.15,0.9s-1.87,0.55-2.6,0.75c-0.73,0.2-1.2,0.3-1.4,0.3
		c-1.14,0-2.4-0.58-3.8-1.75c-1.4-1.17-2.83-2.67-4.3-4.5c-1.47-1.83-2.9-3.83-4.3-6c-1.4-2.16-2.65-4.27-3.75-6.3
		c-1.1-2.03-2-3.86-2.7-5.5c-0.7-1.63-1.08-2.78-1.15-3.45c0-1.06,0.42-2.61,1.25-4.65c0.83-2.03,1.9-4.37,3.2-7
		c1.3-2.63,2.77-5.47,4.4-8.5c1.63-3.03,3.28-6.05,4.95-9.05c-0.8-0.2-1.3-0.33-1.5-0.4c-0.2-0.07-0.33-0.1-0.4-0.1
		c-2.6,0-4.75-0.02-6.45-0.05c-1.7-0.03-3.05-0.06-4.05-0.1c-1-0.03-1.72-0.08-2.15-0.15c-0.43-0.06-0.65-0.13-0.65-0.2
		c0-0.13,0.45-0.3,1.35-0.5c0.9-0.2,1.9-0.37,3-0.5c1.1-0.13,2.13-0.27,3.1-0.4c0.97-0.13,1.55-0.2,1.75-0.2
		c-3.67,0-6.1-0.11-7.3-0.35c-1.2-0.23-1.8-0.62-1.8-1.15c0-0.4,0.48-0.68,1.45-0.85c0.97-0.17,1.85-0.28,2.65-0.35
		c-1.13-0.13-1.7-0.36-1.7-0.7c0-0.13-0.33-0.25-1-0.35c-0.67-0.1-1.38-0.2-2.15-0.3c-0.77-0.1-1.48-0.2-2.15-0.3
		c-0.67-0.1-1-0.18-1-0.25c0-0.07,0.35-0.13,1.05-0.2c0.7-0.07,1.92-0.12,3.65-0.15c1.73-0.03,4.08-0.06,7.05-0.1
		c2.97-0.03,6.75-0.05,11.35-0.05l3.5-7c0.73-1.53,1.7-3.35,2.9-5.45c1.2-2.1,2.45-4.27,3.75-6.5c1.3-2.23,2.58-4.38,3.85-6.45
		c1.27-2.07,2.4-3.83,3.4-5.3l0.3-0.5c0.27-0.53,0.62-1.2,1.05-2c0.43-0.8,0.88-1.58,1.35-2.35c0.46-0.77,0.88-1.42,1.25-1.95
		c0.36-0.53,0.61-0.83,0.75-0.9l1.3-2.3v-0.5l3.2-5.2l4.9-8.6c0.33-0.53,0.68-1.03,1.05-1.5c0.36-0.47,0.65-0.7,0.85-0.7v0.1
		c0,0.34-0.2,0.84-0.6,1.5c-0.73,1.2-1.37,2.27-1.9,3.2c-0.53,0.93-1.03,1.78-1.5,2.55c-0.47,0.77-0.93,1.52-1.4,2.25
		c-0.47,0.73-0.93,1.54-1.4,2.4l-1.8,4.1L298,455.75z M275,495.45c0.47-0.8,1-1.7,1.6-2.7s1.2-2.13,1.8-3.4l1.3-2.8
		c-0.6,1.07-1.35,2.4-2.25,4C276.55,492.15,275.73,493.78,275,495.45 M275.5,495.45h0.3l1-2.3L275.5,495.45z M299.9,541.45
		c-1.33,0.07-3.08,0.13-5.25,0.2c-2.17,0.07-4.27,0.13-6.3,0.2c-2.04,0.07-4.52,0.17-7.45,0.3h0.9h4.75c2.3,0,5.55-0.07,9.75-0.2
		L299.9,541.45z M290.3,482.35c-0.13-0.13-0.35,0.04-0.65,0.5c-0.3,0.47-0.6,1-0.9,1.6c-0.3,0.6-0.65,1.47-1.05,2.6l1-1.6
		c0.33-0.53,0.65-1.05,0.95-1.55C289.95,483.4,290.17,482.88,290.3,482.35 M294,480.15l0.2-1.5l-1.4,2.7L294,480.15z M294,475.55
		c-0.2,0.87-0.47,1.84-0.8,2.9l2.1-3.7c0-0.07,0.02-0.11,0.05-0.15c0.03-0.03,0.05-0.08,0.05-0.15L294,475.55z M295.6,487.65
		l-1.5,2.8c0.4-0.47,0.9-1.15,1.5-2.05c0.6-0.9,1-1.52,1.2-1.85L295.6,487.65z M297.7,484.25l0.1-0.2l-0.6,0.8l0.3-0.3L297.7,484.25
		z M300.5,479.35c-0.2,0.67-0.45,1.3-0.75,1.9c-0.3,0.6-0.58,1.23-0.85,1.9l-0.9,0.9c0.13,0,0.32,0.03,0.55,0.1
		c0.23,0.07,0.42,0.1,0.55,0.1c0.27,0,0.43-0.17,0.5-0.5L300.5,479.35z M334.4,542.75c0,0.07,0.07,0.1,0.2,0.1l-0.1-0.1H334.4z
		 M336.2,541.35l8-0.1l-0.1-0.1L336.2,541.35z"/>
	<path d="M350,567.55v-0.7c-0.87,1.33-1.68,2.63-2.45,3.9c-0.77,1.27-1.25,1.9-1.45,1.9c0-0.07-0.02-0.12-0.05-0.15
		c-0.03-0.03-0.05-0.08-0.05-0.15l0.8-1.4v-1.5l-1.1,1.1v-0.9c0-0.27,0.03-0.54,0.1-0.8c-0.67,0.67-1.43,1.35-2.3,2.05
		c-0.87,0.7-1.53,1.05-2,1.05c-0.2,0-0.3-0.14-0.3-0.4c0-0.47,0.52-1.6,1.55-3.4c1.03-1.8,2.92-4.57,5.65-8.3
		c-0.53,0-1.1,0.25-1.7,0.75s-1.2,1.07-1.8,1.7c-0.6,0.63-1.13,1.2-1.6,1.7c-0.47,0.5-0.8,0.75-1,0.75c-0.07,0-0.1-0.1-0.1-0.3
		c0-0.27,0.13-0.47,0.4-0.6c0.13-0.07,0.27-0.1,0.4-0.1c0.53-1,0.93-2.12,1.2-3.35c0.27-1.23,0.4-2.25,0.4-3.05l-0.4,0.3l0.5-0.5
		l-0.1,0.2l0.6-0.3l0.8-1l-1.3,1.1c0.27-1.47,0.95-3.43,2.05-5.9c1.1-2.47,2.4-5.28,3.9-8.45c1.5-3.16,3.13-6.53,4.9-10.1
		c1.77-3.57,3.48-7.18,5.15-10.85c1.67-3.66,3.02-6.61,4.05-8.85c1.03-2.23,1.88-4.03,2.55-5.4c0.67-1.36,1.23-2.46,1.7-3.3
		c0.47-0.83,0.93-1.68,1.4-2.55c0.47-0.87,1-1.87,1.6-3c0.6-1.13,1.4-2.68,2.4-4.65c1-1.96,2.27-4.52,3.8-7.65
		c1.53-3.13,3.43-7.13,5.7-12c1.13-2.33,2.27-4.8,3.4-7.4c1.13-2.6,2.37-5.13,3.7-7.6c0.87-1.87,1.82-3.87,2.85-6
		c1.03-2.13,2.02-4.12,2.95-5.95c0.93-1.83,1.75-3.35,2.45-4.55c0.7-1.2,1.15-1.83,1.35-1.9c0.33-0.07,0.83-0.1,1.5-0.1
		c1.33,0,2.72,0.28,4.15,0.85c1.43,0.57,2.75,1.3,3.95,2.2c1.2,0.9,2.2,1.87,3,2.9c0.8,1.03,1.2,1.98,1.2,2.85v3.7
		c0,1.27-0.22,3.17-0.65,5.7c-0.43,2.53-1.27,5.77-2.5,9.7c-1.23,3.93-2.93,8.65-5.1,14.15c-2.17,5.5-4.98,11.85-8.45,19.05
		c-0.67,1.33-1.58,3.08-2.75,5.25c-1.17,2.17-2.73,5-4.7,8.5c-1.97,3.5-4.38,7.75-7.25,12.75c-2.87,5-6.3,10.97-10.3,17.9l-6.4,11.1
		v-0.1c-1.53,2.53-3.12,5.18-4.75,7.95c-1.63,2.77-3.35,5.68-5.15,8.75c-0.33,0.8-0.92,1.85-1.75,3.15
		c-0.83,1.3-1.45,2.35-1.85,3.15c0,0.4-0.17,0.66-0.5,0.8c-0.33,0.13-0.67,0.37-1,0.7l2.3-3.8v-1.5c1-1.8,2.17-3.84,3.5-6.1
		c1.33-2.27,2.62-4.45,3.85-6.55c1.23-2.1,2.27-3.93,3.1-5.5c0.83-1.57,1.25-2.58,1.25-3.05v-0.1c-0.13,0-0.7,0.82-1.7,2.45
		c-1,1.63-2.22,3.67-3.65,6.1c-1.43,2.43-2.98,5.08-4.65,7.95c-1.67,2.87-3.23,5.52-4.7,7.95c-1.47,2.43-2.73,4.47-3.8,6.1
		c-1.07,1.63-1.7,2.45-1.9,2.45l-0.1-0.1l16.7-30.8c-1.2,2.07-2.27,3.88-3.2,5.45c-0.93,1.57-1.95,3.27-3.05,5.1
		c-1.1,1.83-2.15,3.53-3.15,5.1c-1,1.57-1.88,2.88-2.65,3.95c-0.76,1.07-1.28,1.6-1.55,1.6c-0.07,0-0.1-0.04-0.1-0.1
		c0-0.2,0.12-0.67,0.35-1.4c0.23-0.73,0.52-1.57,0.85-2.5v0.3l1.4-1.4c0-0.53,0.2-1.07,0.6-1.6l1-1l0.3-0.5l0.4-0.5l-1.4,1.4
		l-0.4,0.5l-0.3,0.5l-1.2,1.2c0.4-1.07,0.83-2.2,1.3-3.4c0.47-1.2,0.9-2.32,1.3-3.35c0.4-1.03,0.73-1.88,1-2.55
		c0.27-0.67,0.4-1.07,0.4-1.2c-0.07-0.07-0.13-0.1-0.2-0.1c-0.26,0-0.63,0.3-1.1,0.9c-0.47,0.6-1,1.37-1.6,2.3l-0.5,0.5v0.2l1.4-1.6
		v0.9L350,567.55z M345.7,570.55c0,0.8,0.1,1.4,0.3,1.8l-4.2,6.7l3.6-8.2L345.7,570.55z M344.6,565.75c-0.53,0.53-0.91,1.2-1.15,2
		c-0.23,0.8-0.51,1.5-0.85,2.1l-0.5,0.5h0.2l1.4-1.4c0.4-0.73,0.75-1.53,1.05-2.4c0.3-0.87,0.72-1.6,1.25-2.2L344.6,565.75z
		 M342.3,570.35l1.2-1.4h0.2L342.3,570.35z M349.1,550.55l-1.4,1.4c0,0.73-0.17,1.45-0.5,2.15c-0.33,0.7-0.73,1.35-1.2,1.95l0.5-0.3
		c0.6-0.73,1.18-1.53,1.75-2.4C348.82,552.48,349.1,551.55,349.1,550.55 M353.6,576.65c-1.53,2.73-2.3,4.46-2.3,5.2l-2.7,4.4
		l3.6-8.2L353.6,576.65z M349,574.65c0.13-0.54,0.27-0.9,0.4-1.1L349,574.65z M352,559.35l0.2-0.7l-1.4,1.4l-0.2,0.7L352,559.35z
		 M353.2,562.05l0.3-0.5l-0.8,0.8L353.2,562.05z M356.3,557.95l-1.8,1.8l-1,1.8l1.1-0.9l1.2-2.1l0.4-0.3c0-0.07,0.02-0.12,0.05-0.15
		C356.29,558.07,356.3,558.02,356.3,557.95 M354.1,547.85l-0.5,0.5c0.07,0,0.12-0.02,0.15-0.05c0.03-0.03,0.08-0.05,0.15-0.05
		L354.1,547.85z M359.5,550.35l0.8-1l-2.2,2.4L359.5,550.35z"/>
	<path d="M444.4,534.95c4.53,0,8.75-0.37,12.65-1.1c3.9-0.73,7.42-1.91,10.55-3.55c3.13-1.63,5.9-3.77,8.3-6.4
		c2.4-2.63,4.37-5.82,5.9-9.55c-3.33-0.06-6.1-0.11-8.3-0.15c-2.2-0.03-3.95-0.05-5.25-0.05c-1.3,0-2.22-0.02-2.75-0.05
		c-0.53-0.03-0.77-0.08-0.7-0.15c-0.67-0.27-1-0.57-1-0.9c0-0.07,0.02-0.13,0.05-0.2c0.03-0.06,0.05-0.16,0.05-0.3
		c-3.93-0.07-7.23-0.13-9.9-0.2c-2.67-0.06-4.82-0.13-6.45-0.2c-1.63-0.07-2.8-0.15-3.5-0.25c-0.7-0.1-1.05-0.18-1.05-0.25
		c0-0.07,0.27-0.13,0.8-0.2c0.53-0.07,1.23-0.13,2.1-0.2c0.87-0.07,1.85-0.13,2.95-0.2c1.1-0.07,2.22-0.13,3.35-0.2l0.3-0.5
		c-0.73,0.07-1.67,0.12-2.8,0.15c-1.13,0.03-2.33,0.05-3.6,0.05c-1.13,0-2.23-0.02-3.3-0.05c-1.07-0.03-2.03-0.07-2.9-0.1
		c-0.87-0.03-1.57-0.07-2.1-0.1c-0.53-0.03-0.8-0.08-0.8-0.15c1.27-0.07,2.28-0.13,3.05-0.2c0.77-0.07,1.47-0.12,2.1-0.15
		c0.63-0.03,0.95-0.11,0.95-0.25l-2.6-0.4c-1.13-0.2-1.7-0.33-1.7-0.4c0-0.13,0.22-0.22,0.65-0.25c0.43-0.03,0.92-0.05,1.45-0.05
		h5.3c1.2-0.07,2.02-0.12,2.45-0.15c0.43-0.03,0.65-0.08,0.65-0.15c0-0.07-0.17-0.1-0.5-0.1c-1.33,0-2.25-0.07-2.75-0.2
		c-0.5-0.13-0.75-0.23-0.75-0.3c0-0.13,0.3-0.27,0.9-0.4c0.6-0.13,1.27-0.2,2-0.2l5.8,0.1c0.33-0.13,0.5-0.23,0.5-0.3
		c0-0.13-0.27-0.27-0.8-0.4c-0.53-0.13-1.15-0.26-1.85-0.4c-0.7-0.13-1.35-0.27-1.95-0.4c-0.6-0.13-1-0.27-1.2-0.4l-2.7-2.3
		c0-0.07,0.38-0.11,1.15-0.15c0.77-0.03,1.75-0.05,2.95-0.05s2.5-0.02,3.9-0.05c1.4-0.03,2.68-0.05,3.85-0.05h2.95h1.1
		c-2.07-0.07-3.82-0.1-5.25-0.1c-1.43,0-2.6-0.05-3.5-0.15c-0.9-0.1-1.55-0.25-1.95-0.45c-0.4-0.2-0.6-0.53-0.6-1
		c0-0.13,0.07-0.46,0.2-1c-0.47-0.26-1.47-0.45-3-0.55c-1.53-0.1-3.12-0.17-4.75-0.2c-1.63-0.03-3.08-0.07-4.35-0.1
		c-1.27-0.03-1.9-0.08-1.9-0.15c0-0.07,0.52-0.16,1.55-0.3c1.03-0.13,2.33-0.23,3.9-0.3c1.57-0.07,3.27-0.15,5.1-0.25
		c1.83-0.1,3.57-0.18,5.2-0.25c1.63-0.07,3.05-0.12,4.25-0.15c1.2-0.03,1.93-0.05,2.2-0.05h2.1h2.75c1.17,0,2.72,0.04,4.65,0.1
		c1.93,0.07,4.5,0.17,7.7,0.3c1.8-0.07,3.75-0.13,5.85-0.2c2.1-0.07,4.15-0.12,6.15-0.15c2-0.03,3.85-0.05,5.55-0.05h4.05h0.3
		c0,0.07-0.58,0.17-1.75,0.3c-1.17,0.14-2.45,0.29-3.85,0.45c-1.4,0.17-2.68,0.33-3.85,0.5c-1.17,0.17-1.75,0.29-1.75,0.35
		c0-0.07,0.11-0.03,0.35,0.1c0.23,0.13,0.52,0.2,0.85,0.2c1.26,0,2.4-0.05,3.4-0.15c1-0.1,2.07-0.15,3.2-0.15l0.2,0.2
		c0.06,0.07,0.23,0.1,0.5,0.1l13.6-0.8l3.1,0.5c-3.67,11.8-8.15,21.53-13.45,29.2c-5.3,7.67-11.3,13.75-18,18.25
		c-6.7,4.5-14.03,7.63-22,9.4c-7.97,1.77-16.42,2.65-25.35,2.65c-4.93,0-9.5-1.1-13.7-3.3c-4.2-2.2-7.85-4.92-10.95-8.15
		c-3.1-3.23-5.53-6.68-7.3-10.35c-1.76-3.66-2.65-6.96-2.65-9.9c0.4-8.53,1.83-16.3,4.3-23.3s5.67-13.25,9.6-18.75
		c3.93-5.5,8.42-10.27,13.45-14.3c5.03-4.03,10.35-7.36,15.95-10c5.6-2.63,11.28-4.6,17.05-5.9c5.77-1.3,11.32-1.95,16.65-1.95
		c4.93,0,9.08,0.47,12.45,1.4c3.36,0.93,6.08,2.07,8.15,3.4c2.06,1.33,3.55,2.75,4.45,4.25c0.9,1.5,1.35,2.85,1.35,4.05
		c0,1.67-0.52,2.8-1.55,3.4c-1.04,0.6-2.12,0.9-3.25,0.9c-1.07,0-2.29-0.15-3.65-0.45c-1.37-0.3-2.85-0.63-4.45-1
		c-1.6-0.37-3.35-0.7-5.25-1c-1.9-0.3-3.88-0.45-5.95-0.45c-6.87,0-13.25,1.3-19.15,3.9c-5.9,2.6-11.02,6.17-15.35,10.7
		c-4.33,4.53-7.73,9.85-10.2,15.95c-2.47,6.1-3.7,12.62-3.7,19.55c0,2.2,0.25,4.35,0.75,6.45c0.5,2.1,1.33,3.97,2.5,5.6
		c1.17,1.63,2.7,2.97,4.6,4C439.35,534.43,441.67,534.95,444.4,534.95 M447.3,506.05c0,0.14-0.27,0.23-0.8,0.3
		c-0.53,0.07-1.17,0.12-1.9,0.15c-0.73,0.03-1.5,0.07-2.3,0.1c-0.8,0.04-1.43,0.05-1.9,0.05c-1.47,0-2.47-0.03-3-0.1
		c-0.53-0.07-0.8-0.17-0.8-0.3c0-0.13,0.5-0.27,1.5-0.4c1-0.13,2.47-0.2,4.4-0.2c1.2,0,2.28,0.03,3.25,0.1
		C446.72,505.82,447.23,505.92,447.3,506.05 M437.5,511.85c0.33,0,0.7-0.01,1.1-0.05c0.4-0.03,0.8-0.05,1.2-0.05
		c0.27,0,0.52,0.05,0.75,0.15c0.23,0.1,0.38,0.15,0.45,0.15c-0.33,0.27-0.75,0.47-1.25,0.6c-0.5,0.13-0.98,0.2-1.45,0.2
		c-0.33,0-0.63-0.05-0.9-0.15c-0.27-0.1-0.4-0.25-0.4-0.45C437.07,512.05,437.23,511.92,437.5,511.85 M454.7,501.45
		c0.6,0,0.98-0.03,1.15-0.1c0.17-0.07,0.32-0.2,0.45-0.4c0.13-0.2,0.3-0.5,0.5-0.9c0.2-0.4,0.63-0.93,1.3-1.6
		c-0.53,0.07-1.08,0.08-1.65,0.05c-0.57-0.03-1.08-0.02-1.55,0.05c-0.47,0.07-0.85,0.22-1.15,0.45c-0.3,0.23-0.45,0.62-0.45,1.15
		c0,0.53,0.2,0.88,0.6,1.05C454.3,501.37,454.57,501.45,454.7,501.45 M455.6,507.05c5-0.13,8.63-0.27,10.9-0.4
		c2.27-0.13,3.6-0.27,4-0.4l0.1-0.1c0-0.07-0.33-0.1-1-0.1c-0.6,0-1.42,0.04-2.45,0.1c-1.03,0.07-2.15,0.12-3.35,0.15
		c-1.2,0.04-2.45,0.08-3.75,0.15c-1.3,0.07-2.52,0.1-3.65,0.1L455.6,507.05z M459.4,513.25c0,0.13-0.02,0.27-0.05,0.4
		c-0.03,0.13-0.05,0.27-0.05,0.4c-1.33,0-2.07-0.27-2.2-0.8H459.4z M463.8,500.65c0.53,0,0.97-0.07,1.3-0.2
		c0.33-0.13,0.68-0.3,1.05-0.5c0.37-0.2,0.83-0.43,1.4-0.7c0.57-0.27,1.42-0.5,2.55-0.7c-0.13,0-0.23-0.02-0.3-0.05
		c-0.07-0.03-0.13-0.05-0.2-0.05h-0.1l-7.9,0.2c-0.47,0-0.77,0.12-0.9,0.35c-0.13,0.23-0.2,0.48-0.2,0.75c0,0.47,0.03,0.87,0.1,1.2
		c0.07,0.33,0.13,0.5,0.2,0.5c0.73,0,1.33-0.13,1.8-0.4C463.07,500.78,463.47,500.65,463.8,500.65"/>
	<path d="M578.3,492.25l0.6-1.1c-0.2,0-0.42-0.01-0.65-0.05c-0.23-0.03-0.45-0.05-0.65-0.05h-5.1h-0.95c-0.3,0-0.62-0.03-0.95-0.1
		h-7.4c-0.33,0-0.65-0.02-0.95-0.05c-0.3-0.03-0.62-0.05-0.95-0.05c0-0.07,0.03-0.1,0.1-0.1h-6c-0.33,0-0.6-0.03-0.8-0.1h0.7
		c0.13,0,0.2-0.03,0.2-0.1h-0.6c-0.07,0-0.12-0.02-0.15-0.05c-0.03-0.03-0.08-0.05-0.15-0.05h0.2h0.8c0.2,0,0.47-0.03,0.8-0.1h0.2
		c0.26-0.07,0.73-0.1,1.4-0.1h0.7c0.27,0,0.53-0.03,0.8-0.1c0.27-0.07,0.57-0.1,0.9-0.1h1.2c0.47-0.13,1-0.23,1.6-0.3
		c0.6-0.07,1.27-0.1,2-0.1c0.67,0,1.35,0.02,2.05,0.05c0.7,0.03,1.42,0.05,2.15,0.05h1.8c0.6,0,1.2-0.07,1.8-0.2h6.9
		c3.07-5,6.1-9.75,9.1-14.25s5.73-8.48,8.2-11.95c2.8-4.07,5.53-7.83,8.2-11.3c0.93-1.33,1.67-2.63,2.2-3.9
		c0.53-1.26,1-2.37,1.4-3.3c1.8-1.73,2.7-3.57,2.7-5.5c0-0.46,0.2-0.77,0.6-0.9c0.4-0.13,0.83-0.4,1.3-0.8c0.2,0.33,0.3,0.67,0.3,1
		c0,0.4-0.1,0.77-0.3,1.1c-0.2,0.33-0.3,0.6-0.3,0.8c0,1.07,0.11,1.97,0.35,2.7c0.23,0.73,0.82,1.57,1.75,2.5v-0.9
		c0-0.46,0.2-0.88,0.6-1.25c0.4-0.36,0.8-0.55,1.2-0.55c0.47,0,0.9,0.03,1.3,0.1c0.4,0.07,0.6,0.33,0.6,0.8l2.7,5.4
		c0,0.27-0.15,0.54-0.45,0.8c-0.3,0.27-0.62,0.53-0.95,0.8c-0.33,0.27-0.65,0.55-0.95,0.85c-0.3,0.3-0.45,0.62-0.45,0.95
		c0,0.4,0.23,0.65,0.7,0.75c0.47,0.1,1,0.23,1.6,0.4c0.6,0.17,1.13,0.45,1.6,0.85c0.46,0.4,0.7,1.03,0.7,1.9
		c-0.27,0-0.57,0.22-0.9,0.65c-0.33,0.43-0.63,0.95-0.9,1.55c-0.27,0.6-0.48,1.2-0.65,1.8c-0.17,0.6-0.25,1.07-0.25,1.4
		c-0.93,2.93-1.72,5.38-2.35,7.35c-0.64,1.97-1.17,3.65-1.6,5.05c-0.43,1.4-0.85,2.65-1.25,3.75c-0.4,1.1-0.83,2.2-1.3,3.3
		c-0.47,1.1-1.05,2.32-1.75,3.65c-0.7,1.33-1.58,3-2.65,5h0.3c0.33,0,0.56-0.03,0.7-0.1c0.4,0,0.7,0.03,0.9,0.1h-0.8
		c-0.07,0-0.1,0.02-0.1,0.05c0,0.03-0.03,0.05-0.1,0.05h0.2c0.07,0,0.1,0.02,0.1,0.05c0,0.03,0.03,0.05,0.1,0.05
		c-0.2,0-0.4,0.02-0.6,0.05c-0.2,0.03-0.4,0.05-0.6,0.05h-0.2l-2,3.6l4.7,0.3l10.4,2.2h-5.6h-4.15c-0.83,0-1.25,0.03-1.25,0.1
		c0,0.07,0.5,0.13,1.5,0.2c1,0.07,2.27,0.17,3.8,0.3c1.53,0.13,3.16,0.27,4.9,0.4c1.73,0.13,3.37,0.28,4.9,0.45
		c1.53,0.17,2.8,0.35,3.8,0.55c1,0.2,1.5,0.4,1.5,0.6c0,0.13-0.37,0.28-1.1,0.45c-0.73,0.17-1.92,0.35-3.55,0.55
		c-1.64,0.2-3.82,0.4-6.55,0.6c-2.73,0.2-6.1,0.4-10.1,0.6h6.8c0.73,0,1.4,0.07,2,0.2c0.6,0.13,0.9,0.27,0.9,0.4
		c0,0.2-0.6,0.3-1.8,0.3c-1.6,0-3-0.02-4.2-0.05c-1.2-0.03-2.34-0.07-3.4-0.1c-1.07-0.03-2.12-0.07-3.15-0.1
		c-1.03-0.03-2.25-0.05-3.65-0.05l-0.6,1.4c1.67,0.07,3.61,0.12,5.85,0.15c2.23,0.03,4.53,0.07,6.9,0.1
		c2.36,0.04,4.72,0.07,7.05,0.1c2.33,0.03,4.4,0.08,6.2,0.15c1.8,0.07,3.27,0.13,4.4,0.2c1.13,0.07,1.7,0.17,1.7,0.3
		c0,0.2-0.6,0.3-1.8,0.3h-2.1h-2.05c-1.3,0-2.8-0.02-4.5-0.05c-1.7-0.03-3.42-0.05-5.15-0.05h-4c0.47,0.07,0.88,0.1,1.25,0.1
		c0.36,0,0.68,0.03,0.95,0.1c0.27,0.07,0.5,0.1,0.7,0.1c0,0.07-0.67,0.15-2,0.25c-1.33,0.1-2.9,0.18-4.7,0.25
		c-1.8,0.07-3.65,0.13-5.55,0.2c-1.9,0.07-3.42,0.13-4.55,0.2c0,0.13-0.07,0.27-0.2,0.4c1.07,0.07,2.37,0.13,3.9,0.2
		c1.53,0.07,3.02,0.15,4.45,0.25c1.43,0.1,2.65,0.2,3.65,0.3s1.5,0.18,1.5,0.25c0,0.13-1.07,0.23-3.2,0.3
		c-2.13,0.07-5.93,0.17-11.4,0.3l-1,1.5c-0.27,0.53-0.62,1.28-1.05,2.25c-0.43,0.97-1.02,2.17-1.75,3.6
		c-0.73,1.43-1.62,3.17-2.65,5.2c-1.03,2.03-2.25,4.42-3.65,7.15c-0.47,0.93-1.03,1.85-1.7,2.75c-0.67,0.9-1,1.82-1,2.75
		c0,0.2-0.05,0.42-0.15,0.65c-0.1,0.23-0.22,0.42-0.35,0.55c-0.14,0.27-0.27,0.47-0.4,0.6c-0.2,0.4-0.68,1.43-1.45,3.1
		c-0.77,1.67-1.72,3.62-2.85,5.85c-1.14,2.23-2.34,4.6-3.6,7.1s-2.47,4.8-3.6,6.9c-1.14,2.1-2.12,3.85-2.95,5.25
		c-0.83,1.4-1.35,2.13-1.55,2.2c-0.53,0-0.97-0.43-1.3-1.3c-1-0.8-2.05-1.75-3.15-2.85c-1.1-1.1-2.08-2.25-2.95-3.45
		c-0.87-1.2-1.58-2.37-2.15-3.5c-0.57-1.13-0.85-2.1-0.85-2.9v-3.7c0-1.07-0.13-2.32-0.4-3.75c-0.27-1.43-0.4-3.22-0.4-5.35
		c0-1.46,0.1-3.12,0.3-4.95c0.2-1.83,0.6-3.93,1.2-6.3c0.6-2.37,1.43-4.98,2.5-7.85c1.07-2.87,2.46-6.07,4.2-9.6
		c-0.2,0.07-0.47,0.1-0.8,0.1h-0.3c-0.27,0-1.02,0.05-2.25,0.15c-1.23,0.1-2.62,0.18-4.15,0.25c-1.53,0.07-3.02,0.13-4.45,0.2
		c-1.43,0.07-2.48,0.1-3.15,0.1c-0.33,0-0.7,0.02-1.1,0.05c-0.4,0.03-0.8,0.05-1.2,0.05h-4.8c-0.13,0-0.23,0.02-0.3,0.05
		c-0.07,0.04-0.17,0.05-0.3,0.05c-0.2,0-0.4-0.02-0.6-0.05c-0.2-0.03-0.4-0.05-0.6-0.05h-2.8c-1.87,3.4-3.44,6.37-4.7,8.9
		c-1.27,2.53-2.35,4.78-3.25,6.75c-0.9,1.97-1.65,3.65-2.25,5.05c-0.6,1.4-1.17,2.63-1.7,3.7c-0.73,1.47-1.52,3.13-2.35,5
		c-0.84,1.87-1.59,3.47-2.25,4.8c-0.34,0.6-0.77,1.38-1.3,2.35c-0.53,0.97-1.14,1.9-1.8,2.8c-0.67,0.9-1.33,1.68-2,2.35
		c-0.67,0.67-1.3,1-1.9,1c-0.73,0-1.47-0.39-2.2-1.15c-0.74-0.77-1.47-1.65-2.2-2.65c-0.73-1-1.43-2.02-2.1-3.05
		c-0.67-1.03-1.23-1.85-1.7-2.45c-0.4-0.47-0.6-1.17-0.6-2.1c0-0.93,0.1-2,0.3-3.2c0.2-1.2,0.3-2.43,0.3-3.7
		c0-0.87,0.25-1.78,0.75-2.75c0.5-0.97,0.75-1.82,0.75-2.55c0-0.33,0.15-1.2,0.45-2.6c0.3-1.4,0.68-3.05,1.15-4.95
		c0.47-1.9,1.02-3.92,1.65-6.05c0.63-2.13,1.25-4.13,1.85-6h-3.6c-0.33,0-0.6-0.03-0.8-0.1h0.7c0.13,0,0.2-0.03,0.2-0.1h-0.6
		c-0.07,0-0.11-0.02-0.15-0.05c-0.03-0.03-0.08-0.05-0.15-0.05h0.2h0.8c0.2,0,0.47-0.03,0.8-0.1h0.2c0.27-0.07,0.73-0.1,1.4-0.1h1.2
		c0.67-1.8,1.27-3.32,1.8-4.55c0.53-1.23,1-1.92,1.4-2.05c0.13-0.47,0.3-1.02,0.5-1.65c0.2-0.63,0.7-1.77,1.5-3.4
		c0.8-1.63,2.01-3.95,3.65-6.95c1.63-3,3.95-7.12,6.95-12.35c3-5.23,6.82-11.82,11.45-19.75c4.63-7.93,10.35-17.63,17.15-29.1
		c0.33-0.8,0.91-1.85,1.75-3.15c0.83-1.3,1.45-2.35,1.85-3.15c0-0.4,0.17-0.67,0.5-0.8c0.33-0.13,0.67-0.37,1-0.7v0.1
		c0,0.47-0.63,1.85-1.9,4.15c-1.27,2.3-2.83,5.08-4.7,8.35c-1.87,3.27-3.9,6.77-6.1,10.5c-2.2,3.73-4.23,7.23-6.1,10.5
		c-1.87,3.27-3.43,6.05-4.7,8.35c-1.27,2.3-1.9,3.65-1.9,4.05v0.1c0.07,0,0.57-0.75,1.5-2.25c0.93-1.5,2.13-3.48,3.6-5.95
		c1.47-2.46,3.11-5.27,4.95-8.4c1.83-3.13,3.7-6.33,5.6-9.6c1.9-3.27,3.78-6.46,5.65-9.6c1.86-3.13,3.55-5.93,5.05-8.4
		c1.5-2.46,2.73-4.45,3.7-5.95c0.97-1.5,1.55-2.25,1.75-2.25h0.1l-16.7,30.8v0.1c1.2-2.07,2.25-3.88,3.15-5.45
		c0.9-1.57,1.92-3.28,3.05-5.15c1.13-1.87,2.2-3.58,3.2-5.15c1-1.57,1.88-2.88,2.65-3.95c0.77-1.07,1.28-1.6,1.55-1.6v0.3
		c0.27-0.4,0.4-0.8,0.4-1.2l1.4-1.4c0,0.6-0.2,1.13-0.6,1.6l-1,1c-0.14,0.27-0.42,0.97-0.85,2.1c-0.43,1.13-0.93,2.43-1.5,3.9
		c-0.57,1.47-1.12,2.92-1.65,4.35c-0.53,1.43-0.97,2.58-1.3,3.45l1.3-2.1l1.9-1.7l-0.8,0.8l-1,1.8l-1.4,1.4
		c-0.27,0.6-0.4,1.03-0.4,1.3c0,0.14,0.06,0.2,0.2,0.2c0.33,0,0.85-0.52,1.55-1.55c0.7-1.03,1.43-2.15,2.2-3.35
		c0.77-1.2,1.47-2.32,2.1-3.35c0.63-1.03,1.01-1.55,1.15-1.55c0.13,0,0.27,0.25,0.4,0.75c0.13,0.5,0.2,1.02,0.2,1.55
		c0,0.47-0.07,0.97-0.2,1.5c0.53-0.53,1.12-1.05,1.75-1.55c0.63-0.5,1.21-0.92,1.75-1.25c0.27-0.53,0.5-1.08,0.7-1.65
		c0.2-0.57,0.47-1.11,0.8-1.65l1.4-1.4h0.2l-0.5,0.5c-0.33,0.67-0.64,1.37-0.9,2.1c-0.27,0.74-0.6,1.37-1,1.9
		c0.26,0,0.4,0.13,0.4,0.4c0,0.53-0.52,1.67-1.55,3.4c-1.03,1.73-2.92,4.47-5.65,8.2c0.47,0,1.02-0.25,1.65-0.75s1.25-1.07,1.85-1.7
		c0.6-0.63,1.11-1.2,1.55-1.7c0.43-0.5,0.75-0.75,0.95-0.75c0.13,0,0.2,0.1,0.2,0.3c0,0.27-0.25,0.65-0.75,1.15
		s-0.85,1.18-1.05,2.05l1.8-1.9l0.9-0.5l-1.4,1.4l-0.4,0.2c-0.4,0.6-0.74,1.14-1,1.6c-0.27,0.47-0.4,1.13-0.4,2c0,1-0.33,2.47-1,4.4
		c-0.67,1.93-1.57,4.2-2.7,6.8c-1.14,2.6-2.43,5.42-3.9,8.45c-1.47,3.04-3,6.12-4.6,9.25c-1.6,3.14-3.22,6.23-4.85,9.3
		c-1.63,3.07-3.15,5.93-4.55,8.6c2.53-0.13,5.53-0.22,9-0.25c3.47-0.03,7.5-0.08,12.1-0.15L578.3,492.25z M566.5,509.15
		c0.33,0,0.53,0.02,0.6,0.05c0.07,0.03,0.11,0.07,0.15,0.1c0.03,0.03,0.08,0.07,0.15,0.1c0.07,0.03,0.27,0.05,0.6,0.05
		c0.33,0,0.57-0.03,0.7-0.1l0.8-1.4h-4.8c-1.73,0.2-3.4,0.3-5,0.3c-0.87,0-1.98-0.02-3.35-0.05c-1.37-0.03-2.82-0.07-4.35-0.1
		c-1.53-0.03-3.07-0.08-4.6-0.15c-1.54-0.07-2.9-0.13-4.1-0.2l-0.7,1.3h10.8h1.65c0.63,0,1.35-0.03,2.15-0.1L566.5,509.15z
		 M546.6,501.45c0.13,0.07,1.33,0.1,3.6,0.1c1.33,0,3.3,0.05,5.9,0.15c2.6,0.1,5.63-0.12,9.1-0.65L546.6,501.45z M559.3,447.85
		c-0.14-0.13-0.35,0.04-0.65,0.5c-0.3,0.47-0.6,1-0.9,1.6c-0.3,0.6-0.65,1.47-1.05,2.6l1-1.6c0.33-0.53,0.65-1.05,0.95-1.55
		C558.95,448.9,559.16,448.39,559.3,447.85 M563,445.65c0.13-1,0.33-1.97,0.6-2.9c0.26-0.93,0.5-1.86,0.7-2.8l-1.3,1.1
		c-0.2,1-0.45,1.98-0.75,2.95c-0.3,0.97-0.52,1.98-0.65,3.05L563,445.65z M562.7,456.35c0.07-0.07,0.23-0.28,0.5-0.65
		c0.27-0.37,0.55-0.77,0.85-1.2c0.3-0.43,0.6-0.88,0.9-1.35c0.3-0.47,0.55-0.83,0.75-1.1l-1.1,1.1c-0.4,0.4-0.74,0.67-1,0.8
		L562.7,456.35z M566.5,450.05c0-0.07,0.07-0.16,0.2-0.3l0.1-0.2l-1,1c0.13,0,0.25-0.05,0.35-0.15L566.5,450.05z M567,421.25v-1.5
		l5-8.1l-3.6,8.2L567,421.25z M569.5,444.85c-0.2,0.67-0.45,1.3-0.75,1.9c-0.3,0.6-0.58,1.23-0.85,1.9l-0.9,0.9
		c0.13,0,0.3,0.03,0.5,0.1c0.2,0.07,0.36,0.1,0.5,0.1c0.33,0,0.53-0.17,0.6-0.5L569.5,444.85z M567.8,447.85
		c-0.07,0.07-0.1,0.14-0.1,0.2L567.8,447.85z M569.2,432.65v-0.9l1.4-1.4v0.9L569.2,432.65z M573.8,428.45v-1.5l5-8.1l-3.6,8.2
		L573.8,428.45z"/>
	<path d="M661.6,456.45c0.33-0.47,0.83-1.12,1.5-1.95c0.67-0.83,1.7-1.68,3.1-2.55c1.4-0.87,3.3-1.62,5.7-2.25
		c2.4-0.63,5.5-0.95,9.3-0.95c1.27,0,2.27,0.15,3,0.45c0.73,0.3,1.3,0.68,1.7,1.15c0.4,0.47,0.67,0.98,0.8,1.55
		c0.13,0.57,0.2,1.15,0.2,1.75c0,0.4-0.02,0.82-0.05,1.25c-0.03,0.43-0.05,0.82-0.05,1.15c5.2,0,10.38,0.17,15.55,0.5
		c5.17,0.33,10.03,0.82,14.6,1.45c4.57,0.64,8.68,1.45,12.35,2.45c3.67,1,6.57,2.17,8.7,3.5c0.07,0.07,0.1,0.13,0.1,0.2
		c0,0.2-0.5,0.4-1.5,0.6c-1,0.2-2.35,0.39-4.05,0.55c-1.7,0.17-3.68,0.32-5.95,0.45c-2.27,0.14-4.67,0.2-7.2,0.2l9.2,1.1l10.4,2
		c0.66,0.2,1.3,0.35,1.9,0.45c0.6,0.1,0.9,0.22,0.9,0.35c-2.73,0.07-5.03,0.15-6.9,0.25c-1.87,0.1-3.75,0.18-5.65,0.25
		c-1.9,0.07-3.38,0.1-4.45,0.1h-2v0.1c0,0.14-0.25,0.2-0.75,0.2h-1.65h-2.8c1.33,0.33,2.52,0.58,3.55,0.75
		c1.03,0.17,1.98,0.32,2.85,0.45h-1.2h-2.1c-0.14,0-0.25,0.02-0.35,0.05c-0.1,0.03-0.25,0.05-0.45,0.05h-0.1
		c0.07,0.14,0.5,0.22,1.3,0.25c0.8,0.03,1.37,0.05,1.7,0.05l1.7,0.3l-1,0.1l-0.8-0.1h-2c2.33,0.13,4.2,0.29,5.6,0.45
		c1.4,0.17,2.68,0.37,3.85,0.6c1.17,0.24,1.75,0.52,1.75,0.85c0,0.2-0.42,0.47-1.25,0.8c-0.83,0.34-2.25,0.67-4.25,1
		c-0.8,0.27-1.6,0.4-2.4,0.4c-0.73,0-1.57-0.06-2.5-0.2c-0.93-0.13-2.27-0.2-4-0.2h-1.7c-0.6,0-1.27,0.03-2,0.1
		c2.13,0.07,3.85,0.18,5.15,0.35c1.3,0.17,2.32,0.33,3.05,0.5c0.73,0.17,1.22,0.33,1.45,0.5c0.23,0.17,0.35,0.28,0.35,0.35
		c0,0.07-1.18,0.12-3.55,0.15c-2.37,0.03-5.52,0.05-9.45,0.05c-3.93,0-8.47,0.02-13.6,0.05c-5.14,0.04-10.5,0.05-16.1,0.05H681
		c-0.53,0.13-0.9,0.2-1.1,0.2c-0.33,0-0.65-0.05-0.95-0.15c-0.3-0.1-0.65-0.15-1.05-0.15c-0.33,0-0.63,0.03-0.9,0.1
		c-2.13,3.74-4.35,7.92-6.65,12.55c-2.3,4.64-4.6,9.5-6.9,14.6c-2.3,5.1-4.54,10.34-6.7,15.7c-2.17,5.37-4.17,10.58-6,15.65
		c-1.83,5.07-3.45,9.9-4.85,14.5c-1.4,4.6-2.47,8.73-3.2,12.4c-0.27,1.07-1.3,1.6-3.1,1.6c-1.4,0-3.05-0.3-4.95-0.9
		c-1.9-0.6-3.72-1.32-5.45-2.15c-1.73-0.84-3.22-1.7-4.45-2.6c-1.23-0.9-1.85-1.69-1.85-2.35c0-2.8-0.02-5.23-0.05-7.3
		c-0.03-2.07-0.05-3.93-0.05-5.6c0-2.67,0.07-4.95,0.2-6.85c0.13-1.9,0.4-3.78,0.8-5.65c0.4-1.86,1-3.93,1.8-6.2
		c0.8-2.27,1.9-5.13,3.3-8.6c0.13-0.4,0.52-1.36,1.15-2.9c0.63-1.53,1.42-3.43,2.35-5.7c0.93-2.27,2.02-4.77,3.25-7.5
		c1.23-2.73,2.5-5.48,3.8-8.25c1.3-2.77,2.62-5.43,3.95-8c1.33-2.57,2.6-4.82,3.8-6.75l-2-0.2c-3,0.2-5.67,0.37-8,0.5
		c-2.33,0.13-4.4,0.2-6.2,0.2c-6.13,0-9.2-0.67-9.2-2c0-0.13,0.32-0.21,0.95-0.25c0.63-0.03,1.52-0.12,2.65-0.25
		c-3.67,0-6.1-0.12-7.3-0.35c-1.2-0.23-1.8-0.61-1.8-1.15c0-0.4,0.52-0.7,1.55-0.9c1.03-0.2,1.95-0.3,2.75-0.3
		c-0.93-0.13-1.72-0.37-2.35-0.7c-0.63-0.33-0.95-0.6-0.95-0.8c0-0.13,0.18-0.26,0.55-0.4c0.37-0.13,1.12-0.27,2.25-0.4
		c0.27-0.4,0.48-0.93,0.65-1.6c0.17-0.67,0.38-1.35,0.65-2.05c0.27-0.7,0.58-1.36,0.95-2c0.37-0.63,0.85-1.11,1.45-1.45
		c-0.13,0-0.2-0.07-0.2-0.2c0-0.2,0.13-0.43,0.4-0.7c0.27-0.27,0.57-0.53,0.9-0.8c0.33-0.27,0.63-0.5,0.9-0.7
		c0.27-0.2,0.4-0.37,0.4-0.5c0-0.53,0.95-1.05,2.85-1.55c1.9-0.5,4.48-0.97,7.75-1.4c3.27-0.43,7.03-0.8,11.3-1.1
		C652.36,456.8,656.86,456.58,661.6,456.45 M696.4,478.95c2,0,4.08,0.18,6.25,0.55c2.17,0.37,4.12,0.55,5.85,0.55
		c0.53,0,0.8-0.07,0.8-0.2c0-0.2-0.3-0.4-0.9-0.6c-0.6-0.2-1.28-0.35-2.05-0.45c-0.77-0.1-1.53-0.18-2.3-0.25
		c-0.77-0.07-1.35-0.1-1.75-0.1c-0.93,0-1.89,0.02-2.85,0.05c-0.97,0.03-1.92,0.05-2.85,0.05L696.4,478.95z M718.3,467.85
		c-0.93,0-1.9,0.03-2.9,0.1c-1,0.07-1.97,0.13-2.9,0.2c-0.34,0-0.75-0.07-1.25-0.2c-0.5-0.13-0.92-0.2-1.25-0.2
		c-0.27,0-0.4,0.1-0.4,0.3c0,0.6,0.2,1.02,0.6,1.25c0.4,0.23,0.7,0.35,0.9,0.35c0.53,0,1.1-0.21,1.7-0.65
		c0.6-0.43,1.17-0.65,1.7-0.65c0.66,0,1.28,0.15,1.85,0.45c0.56,0.3,1.22,0.45,1.95,0.45c0.53,0,0.8-0.2,0.8-0.6
		c0-0.33-0.3-0.5-0.9-0.5L718.3,467.85z M712.9,473.05c0.53,0,1.07,0.22,1.6,0.65c0.53,0.43,1.07,0.72,1.6,0.85h0.1
		c0-0.2-0.35-0.63-1.05-1.3c-0.7-0.67-1.52-1-2.45-1c-0.6,0-1.17,0.27-1.7,0.8H712.9z M718.2,463.35c3.67,0,5.5-0.03,5.5-0.1
		c0-0.06-0.29-0.13-0.85-0.2c-0.57-0.07-1.23-0.13-2-0.2c-0.77-0.07-1.52-0.13-2.25-0.2c-0.73-0.07-1.27-0.1-1.6-0.1h-0.75
		c-0.1,0-0.15,0.03-0.15,0.1c0,0.13,0.28,0.27,0.85,0.4C717.51,463.19,717.93,463.28,718.2,463.35 M721.6,471.25
		c0-0.06,0.4-0.1,1.2-0.1c0.86,0,1.43,0.13,1.7,0.4c-0.73-0.07-1.4-0.11-2-0.15C721.9,471.37,721.6,471.32,721.6,471.25
		 M725.3,471.95c1.47,0,2.2-0.03,2.2-0.1c-0.27,0-0.57-0.03-0.9-0.1c-0.33,0-0.69-0.02-1.05-0.05c-0.37-0.03-0.72-0.08-1.05-0.15
		l0.1,0.1c0,0.13-0.2,0.23-0.6,0.3H725.3z M726.4,477.05c0.26,0.53,0.8,0.89,1.6,1.05c0.8,0.17,1.63,0.25,2.5,0.25
		c0.73,0,1.38-0.05,1.95-0.15c0.57-0.1,0.85-0.22,0.85-0.35c0-0.07-0.23-0.13-0.7-0.2c-0.47-0.07-1.02-0.12-1.65-0.15
		c-0.64-0.03-1.29-0.06-1.95-0.1c-0.67-0.03-1.2-0.05-1.6-0.05L726.4,477.05z M735.6,466.25c1.67,0,3.28,0.19,4.85,0.55
		c1.57,0.37,3.32,0.55,5.25,0.55c1.86,0,2.8-0.16,2.8-0.5c0-0.13-0.17-0.27-0.5-0.4c-0.34-0.13-0.73-0.26-1.2-0.4
		c-0.47-0.13-0.93-0.23-1.4-0.3c-0.47-0.06-0.8-0.1-1-0.1c-1.2,0-2.4,0.04-3.6,0.1c-1.2,0.07-2.4,0.17-3.6,0.3L735.6,466.25z"/>
</g>
</svg>
